<?xml version="1.0" encoding="UTF-8"?>
<svg xmlns="http://www.w3.org/2000/svg" xmlns:xlink="http://www.w3.org/1999/xlink" width="24px" height="px" viewBox="0 0 24 24" version="1.1">
<g id="surface1">
<path style=" stroke:none;fill-rule:nonzero;fill:rgb(0%,0%,0%);fill-opacity:1;" d="M 6.328125 6.007812 C 6.09375 6.132812 5.90625 6.425781 5.90625 6.679688 C 5.910156 7.003906 6.054688 7.167969 8.480469 9.585938 L 10.875 11.976562 L 8.441406 14.414062 C 5.832031 17.03125 5.859375 16.996094 5.925781 17.40625 C 6.003906 17.890625 6.53125 18.179688 7.015625 17.996094 C 7.085938 17.972656 8.242188 16.855469 9.578125 15.523438 L 12 13.101562 L 14.453125 15.546875 C 16.617188 17.714844 16.921875 18 17.09375 18.046875 C 17.640625 18.1875 18.148438 17.71875 18.070312 17.15625 C 18.042969 16.949219 17.972656 16.875 15.570312 14.476562 L 13.101562 12 L 15.542969 9.554688 C 18.164062 6.929688 18.136719 6.957031 18.070312 6.558594 C 18.03125 6.347656 17.832031 6.085938 17.621094 5.972656 C 17.445312 5.882812 17.140625 5.886719 16.953125 5.980469 C 16.871094 6.023438 15.71875 7.140625 14.390625 8.464844 L 11.976562 10.875 L 9.5625 8.457031 C 8.1875 7.082031 7.082031 6.007812 7 5.972656 C 6.78125 5.878906 6.566406 5.890625 6.328125 6.007812 Z M 6.328125 6.007812 "/>
</g>
</svg>
