<?xml version="1.0" encoding="UTF-8"?>
<svg xmlns="http://www.w3.org/2000/svg" xmlns:xlink="http://www.w3.org/1999/xlink" width="32px" height="32px" viewBox="0 0 32 32" version="1.1">
<g id="surface1">
<path style=" stroke:none;fill-rule:nonzero;fill:rgb(0%,0%,0%);fill-opacity:1;" d="M 14.4375 0.0429688 C 11.40625 0.351562 8.519531 1.507812 6.125 3.363281 C 5.394531 3.929688 4.148438 5.15625 3.542969 5.90625 C 1.800781 8.070312 0.664062 10.59375 0.175781 13.398438 C -0.0078125 14.476562 -0.0546875 16.84375 0.0859375 17.9375 C 0.355469 19.949219 0.851562 21.570312 1.730469 23.300781 C 2.46875 24.757812 3.332031 25.949219 4.53125 27.179688 C 7.117188 29.835938 10.300781 31.417969 14.0625 31.914062 C 15.148438 32.050781 17.519531 32.007812 18.601562 31.820312 C 20.238281 31.539062 21.632812 31.085938 23.09375 30.367188 C 24.644531 29.605469 25.894531 28.726562 27.179688 27.46875 C 29.664062 25.050781 31.226562 22.070312 31.820312 18.601562 C 32.007812 17.511719 32.050781 15.21875 31.914062 14.0625 C 31.335938 9.367188 28.742188 5.195312 24.78125 2.585938 C 22.726562 1.238281 20.4375 0.398438 18 0.09375 C 17.292969 0.0078125 15.085938 -0.0234375 14.4375 0.0429688 Z M 16.355469 4.34375 C 16.738281 4.457031 17.144531 4.863281 17.242188 5.226562 C 17.289062 5.394531 17.3125 7.386719 17.3125 11.417969 C 17.3125 14.695312 17.332031 17.375 17.363281 17.375 C 17.386719 17.375 18.113281 16.667969 18.96875 15.8125 C 20.675781 14.105469 20.792969 14.019531 21.375 14.074219 C 22.238281 14.164062 22.78125 15.148438 22.382812 15.914062 C 22.199219 16.269531 16.78125 21.65625 16.488281 21.78125 C 16.175781 21.90625 15.773438 21.898438 15.46875 21.757812 C 15.300781 21.675781 14.292969 20.707031 12.398438 18.804688 C 9.769531 16.15625 9.574219 15.949219 9.5 15.664062 C 9.226562 14.644531 10.375 13.699219 11.300781 14.179688 C 11.425781 14.25 12.21875 14.992188 13.0625 15.835938 C 13.90625 16.679688 14.613281 17.375 14.636719 17.375 C 14.667969 17.375 14.6875 14.695312 14.6875 11.417969 C 14.6875 7.386719 14.710938 5.394531 14.757812 5.226562 C 14.851562 4.882812 15.269531 4.457031 15.617188 4.351562 C 15.988281 4.230469 15.980469 4.230469 16.355469 4.34375 Z M 21.8125 23.824219 C 22.15625 24.007812 22.40625 24.320312 22.507812 24.695312 C 22.648438 25.238281 22.351562 25.851562 21.804688 26.132812 C 21.574219 26.242188 21.386719 26.25 16 26.25 C 10.613281 26.25 10.425781 26.242188 10.195312 26.132812 C 9.648438 25.851562 9.351562 25.238281 9.492188 24.695312 C 9.59375 24.320312 9.84375 24.007812 10.1875 23.824219 L 10.460938 23.6875 L 21.539062 23.6875 Z M 21.8125 23.824219 "/>
</g>
</svg>
