<?xml version="1.0" encoding="UTF-8"?>
<svg xmlns="http://www.w3.org/2000/svg" xmlns:xlink="http://www.w3.org/1999/xlink" width="32px" height="32px" viewBox="0 0 32 32" version="1.1">
<g id="surface1">
<path style=" stroke:none;fill-rule:nonzero;fill:rgb(0%,0%,0%);fill-opacity:1;" d="M 5.375 3.398438 C 4.417969 3.613281 3.574219 4.46875 3.414062 5.386719 L 3.367188 5.625 L 7.78125 5.625 C 12.644531 5.625 12.4375 5.605469 12.867188 6.019531 C 12.980469 6.132812 13.511719 6.730469 14.042969 7.355469 L 15.007812 8.5 L 20.769531 8.5 C 26.394531 8.5 26.542969 8.507812 27 8.632812 C 27.625 8.800781 28.210938 9.15625 28.667969 9.644531 C 29.148438 10.164062 29.40625 10.613281 29.5625 11.226562 C 29.679688 11.695312 29.6875 11.929688 29.6875 18.511719 L 29.6875 25.320312 L 29.925781 25.28125 C 30.050781 25.257812 30.355469 25.144531 30.605469 25.023438 C 31.136719 24.769531 31.492188 24.40625 31.773438 23.8125 L 31.96875 23.40625 L 31.96875 8.09375 L 31.773438 7.6875 C 31.429688 6.960938 30.707031 6.394531 29.9375 6.25 C 29.730469 6.210938 27.414062 6.1875 23.757812 6.1875 L 17.90625 6.1875 L 16.875 4.957031 C 16.304688 4.28125 15.757812 3.632812 15.648438 3.519531 L 15.457031 3.3125 L 10.585938 3.320312 C 6.992188 3.320312 5.632812 3.34375 5.375 3.398438 Z M 5.375 3.398438 "/>
<path style=" stroke:none;fill-rule:nonzero;fill:rgb(0%,0%,0%);fill-opacity:1;" d="M 1.667969 6.835938 C 0.949219 7.136719 0.523438 7.539062 0.207031 8.226562 L 0.03125 8.59375 L 0.0117188 17.550781 C 0 25.449219 0.0117188 26.542969 0.09375 26.835938 C 0.355469 27.738281 1.148438 28.445312 2.117188 28.625 C 2.582031 28.710938 26.042969 28.710938 26.507812 28.625 C 27.476562 28.4375 28.269531 27.738281 28.53125 26.835938 C 28.613281 26.542969 28.625 25.601562 28.613281 18.988281 L 28.59375 11.46875 L 28.394531 11.050781 C 28.136719 10.5 27.6875 10.050781 27.136719 9.792969 L 26.71875 9.59375 L 20.617188 9.5625 L 14.519531 9.53125 L 13.335938 8.125 L 12.148438 6.71875 L 7.085938 6.707031 L 2.03125 6.6875 Z M 1.667969 6.835938 "/>
</g>
</svg>
