<?xml version="1.0" encoding="UTF-8"?>
<svg xmlns="http://www.w3.org/2000/svg" xmlns:xlink="http://www.w3.org/1999/xlink" width="32px" height="32px" viewBox="0 0 32 32" version="1.1">
<g id="surface1">
<path style=" stroke:none;fill-rule:nonzero;fill:rgb(0%,0%,0%);fill-opacity:1;" d="M 13.5 0.230469 L 13.238281 0.46875 L 12.761719 2.414062 L 12.289062 4.355469 L 11.71875 4.5625 C 11.414062 4.675781 10.9375 4.875 10.675781 5.007812 L 10.195312 5.25 L 8.675781 4.332031 L 7.15625 3.40625 L 6.75 3.40625 C 6.230469 3.40625 6.25 3.394531 4.554688 5.105469 C 3.175781 6.492188 3.0625 6.664062 3.148438 7.136719 C 3.167969 7.257812 3.613281 8.0625 4.132812 8.929688 L 5.074219 10.511719 L 4.855469 10.992188 C 4.738281 11.257812 4.574219 11.648438 4.5 11.875 L 4.355469 12.28125 L 2.414062 12.761719 L 0.46875 13.238281 L 0.238281 13.507812 L 0 13.769531 L 0 18.230469 L 0.238281 18.5 L 0.46875 18.761719 L 2.414062 19.238281 L 4.363281 19.710938 L 4.5 20.125 C 4.582031 20.351562 4.769531 20.800781 4.917969 21.136719 L 5.199219 21.738281 L 4.417969 23.042969 C 3.414062 24.71875 3.414062 24.726562 3.46875 25.101562 C 3.511719 25.398438 3.554688 25.449219 4.988281 26.886719 C 5.792969 27.707031 6.554688 28.417969 6.675781 28.476562 C 7.09375 28.675781 7.3125 28.59375 8.867188 27.664062 L 10.292969 26.804688 L 10.792969 27.050781 C 11.074219 27.1875 11.519531 27.375 11.792969 27.46875 L 12.289062 27.644531 L 12.761719 29.585938 L 13.238281 31.53125 L 13.5 31.769531 L 13.769531 32 L 18.230469 32 L 18.5 31.761719 L 18.761719 31.53125 L 19.238281 29.585938 L 19.710938 27.644531 L 20.28125 27.4375 C 20.585938 27.324219 21.03125 27.136719 21.261719 27.023438 C 21.492188 26.90625 21.71875 26.8125 21.757812 26.8125 C 21.792969 26.8125 22.40625 27.164062 23.113281 27.585938 C 23.824219 28.011719 24.492188 28.40625 24.605469 28.460938 C 24.875 28.59375 25.15625 28.585938 25.46875 28.4375 C 25.773438 28.289062 28.460938 25.613281 28.554688 25.355469 C 28.59375 25.257812 28.625 25.054688 28.625 24.914062 C 28.625 24.675781 28.511719 24.449219 27.730469 23.144531 L 26.835938 21.648438 L 27.0625 21.175781 C 27.195312 20.914062 27.375 20.476562 27.46875 20.207031 L 27.644531 19.710938 L 29.585938 19.238281 L 31.53125 18.761719 L 31.769531 18.5 L 32 18.230469 L 32 13.769531 L 31.769531 13.5 L 31.53125 13.238281 L 29.585938 12.761719 L 27.644531 12.289062 L 27.46875 11.792969 C 27.375 11.519531 27.1875 11.074219 27.050781 10.800781 L 26.8125 10.300781 L 27.695312 8.835938 C 28.175781 8.03125 28.585938 7.273438 28.605469 7.15625 C 28.695312 6.625 28.65625 6.574219 27.105469 5.019531 C 26.3125 4.21875 25.574219 3.523438 25.460938 3.46875 C 25.355469 3.417969 25.136719 3.375 24.980469 3.375 C 24.738281 3.375 24.539062 3.476562 23.195312 4.28125 L 21.6875 5.179688 L 21.195312 4.945312 C 20.925781 4.8125 20.480469 4.625 20.207031 4.53125 L 19.710938 4.355469 L 19.238281 2.414062 L 18.761719 0.46875 L 18.5 0.230469 L 18.230469 0 L 13.769531 0 Z M 17.59375 9.667969 C 19.429688 10.179688 20.917969 11.363281 21.761719 12.976562 C 22.101562 13.632812 22.261719 14.09375 22.40625 14.804688 C 22.550781 15.5 22.507812 16.949219 22.324219 17.59375 C 21.820312 19.425781 20.636719 20.917969 19.023438 21.761719 C 17.894531 22.351562 17.074219 22.53125 15.757812 22.480469 C 14.199219 22.425781 12.988281 21.960938 11.804688 20.976562 C 10.6875 20.039062 9.894531 18.6875 9.59375 17.195312 C 9.449219 16.5 9.492188 15.050781 9.675781 14.40625 C 10.355469 11.929688 12.230469 10.15625 14.75 9.59375 C 15.335938 9.460938 17.007812 9.507812 17.59375 9.667969 Z M 17.59375 9.667969 "/>
</g>
</svg>
