<?xml version="1.0" encoding="UTF-8"?>
<svg xmlns="http://www.w3.org/2000/svg" xmlns:xlink="http://www.w3.org/1999/xlink" width="24px" height="px" viewBox="0 0 24 24" version="1.1">
<g id="surface1">
<path style=" stroke:none;fill-rule:nonzero;fill:rgb(0%,0%,0%);fill-opacity:1;" d="M 1.085938 0.84375 C 1.003906 0.894531 0.894531 1.003906 0.84375 1.085938 C 0.753906 1.238281 0.75 1.332031 0.75 4.914062 C 0.75 8.9375 0.742188 8.78125 1.03125 8.929688 C 1.234375 9.03125 3.265625 9.03125 3.46875 8.929688 C 3.726562 8.792969 3.726562 8.832031 3.75 6.296875 C 3.773438 4.117188 3.777344 3.933594 3.859375 3.859375 C 3.933594 3.777344 4.117188 3.773438 6.296875 3.75 C 8.832031 3.726562 8.792969 3.726562 8.929688 3.46875 C 9.03125 3.265625 9.03125 1.234375 8.929688 1.03125 C 8.78125 0.742188 8.9375 0.75 4.914062 0.75 C 1.332031 0.75 1.238281 0.753906 1.085938 0.84375 Z M 1.085938 0.84375 "/>
<path style=" stroke:none;fill-rule:nonzero;fill:rgb(0%,0%,0%);fill-opacity:1;" d="M 15.273438 0.824219 C 15.019531 0.960938 15 1.070312 15 2.25 C 15 3.414062 15.023438 3.539062 15.25 3.664062 C 15.328125 3.710938 15.914062 3.730469 17.703125 3.75 C 19.882812 3.773438 20.066406 3.777344 20.140625 3.859375 C 20.222656 3.933594 20.226562 4.117188 20.25 6.296875 C 20.273438 8.832031 20.273438 8.792969 20.53125 8.929688 C 20.734375 9.03125 22.765625 9.03125 22.96875 8.929688 C 23.257812 8.78125 23.25 8.9375 23.25 4.914062 C 23.25 1.332031 23.246094 1.238281 23.15625 1.085938 C 23.105469 1.003906 22.996094 0.894531 22.914062 0.84375 C 22.761719 0.753906 22.667969 0.75 19.078125 0.75 C 15.914062 0.753906 15.378906 0.765625 15.273438 0.824219 Z M 15.273438 0.824219 "/>
<path style=" stroke:none;fill-rule:nonzero;fill:rgb(0%,0%,0%);fill-opacity:1;" d="M 1.023438 15.074219 C 0.742188 15.226562 0.75 15.074219 0.75 19.085938 C 0.75 22.667969 0.753906 22.761719 0.84375 22.914062 C 0.894531 22.996094 1.003906 23.105469 1.085938 23.15625 C 1.238281 23.246094 1.332031 23.25 4.914062 23.25 C 8.9375 23.25 8.78125 23.257812 8.929688 22.96875 C 9.03125 22.765625 9.03125 20.734375 8.929688 20.53125 C 8.792969 20.273438 8.832031 20.273438 6.296875 20.25 C 4.117188 20.226562 3.933594 20.222656 3.859375 20.140625 C 3.777344 20.066406 3.773438 19.882812 3.75 17.703125 C 3.726562 15.167969 3.726562 15.207031 3.46875 15.070312 C 3.273438 14.96875 1.210938 14.972656 1.023438 15.074219 Z M 1.023438 15.074219 "/>
<path style=" stroke:none;fill-rule:nonzero;fill:rgb(0%,0%,0%);fill-opacity:1;" d="M 20.523438 15.074219 C 20.273438 15.207031 20.273438 15.179688 20.25 17.703125 C 20.226562 19.882812 20.222656 20.066406 20.140625 20.140625 C 20.066406 20.222656 19.882812 20.226562 17.703125 20.25 C 15.167969 20.273438 15.207031 20.273438 15.070312 20.53125 C 14.96875 20.734375 14.96875 22.765625 15.070312 22.96875 C 15.21875 23.257812 15.0625 23.25 19.085938 23.25 C 22.667969 23.25 22.761719 23.246094 22.914062 23.15625 C 22.996094 23.105469 23.105469 22.996094 23.15625 22.914062 C 23.246094 22.761719 23.25 22.667969 23.25 19.085938 C 23.25 15.0625 23.257812 15.21875 22.96875 15.070312 C 22.773438 14.96875 20.710938 14.972656 20.523438 15.074219 Z M 20.523438 15.074219 "/>
</g>
</svg>
