<?xml version="1.0" encoding="UTF-8"?>
<svg xmlns="http://www.w3.org/2000/svg" xmlns:xlink="http://www.w3.org/1999/xlink" width="32px" height="32px" viewBox="0 0 32 32" version="1.1">
<g id="surface1">
<path style=" stroke:none;fill-rule:nonzero;fill:rgb(0%,0%,0%);fill-opacity:1;" d="M 7.914062 0.117188 C 7.820312 0.179688 7.679688 0.320312 7.617188 0.414062 C 7.507812 0.585938 7.5 0.832031 7.5 7.199219 C 7.5 10.835938 7.488281 13.8125 7.476562 13.8125 C 7.460938 13.8125 7.242188 13.710938 6.992188 13.59375 C 6.75 13.476562 6.28125 13.320312 5.960938 13.242188 C 5.457031 13.132812 5.242188 13.113281 4.449219 13.136719 C 3.644531 13.167969 3.460938 13.195312 2.957031 13.355469 C 2.207031 13.605469 1.648438 13.925781 1.144531 14.394531 C 0.34375 15.136719 0 15.886719 0 16.875 C 0 17.824219 0.335938 18.59375 1.070312 19.289062 C 2.011719 20.1875 3.195312 20.625 4.6875 20.625 C 5.523438 20.625 6.085938 20.523438 6.792969 20.25 C 7.96875 19.800781 8.9375 18.835938 9.25 17.824219 C 9.367188 17.4375 9.375 17.226562 9.375 10.445312 L 9.382812 3.46875 L 9.605469 3.71875 C 10 4.164062 11.144531 5.726562 11.554688 6.386719 C 12.511719 7.917969 13 9.125 13.050781 10.101562 C 13.101562 11.117188 12.769531 11.820312 11.46875 13.425781 C 11.273438 13.664062 11.25 13.738281 11.25 14.050781 C 11.25 14.449219 11.367188 14.6875 11.664062 14.882812 C 11.914062 15.042969 12.46875 15.042969 12.71875 14.875 C 13.15625 14.585938 14.0625 13.34375 14.492188 12.4375 C 15.570312 10.1875 14.960938 7.769531 12.398438 4.125 C 11.507812 2.84375 9.398438 0.394531 8.960938 0.125 C 8.699219 -0.0429688 8.164062 -0.0429688 7.914062 0.117188 Z M 7.914062 0.117188 "/>
<path style=" stroke:none;fill-rule:nonzero;fill:rgb(0%,0%,0%);fill-opacity:1;" d="M 30.882812 5.738281 C 30.699219 5.769531 17.539062 11.40625 17.363281 11.523438 C 17.289062 11.574219 17.179688 11.699219 17.117188 11.792969 C 17.007812 11.957031 17 12.15625 17 14.929688 C 17 17.71875 17.007812 17.886719 17.113281 17.851562 C 17.167969 17.824219 20.542969 16.355469 24.613281 14.574219 L 32 11.34375 L 32 8.84375 C 32 6.476562 31.992188 6.332031 31.875 6.144531 C 31.695312 5.84375 31.261719 5.667969 30.882812 5.738281 Z M 30.882812 5.738281 "/>
<path style=" stroke:none;fill-rule:nonzero;fill:rgb(0%,0%,0%);fill-opacity:1;" d="M 31.0625 13.710938 L 30.15625 14.105469 L 30.136719 16.835938 C 30.132812 18.335938 30.113281 19.5625 30.101562 19.5625 C 30.082031 19.5625 29.867188 19.460938 29.617188 19.34375 C 29.375 19.226562 28.90625 19.070312 28.585938 18.992188 C 28.082031 18.882812 27.867188 18.863281 27.074219 18.886719 C 26.242188 18.914062 26.101562 18.9375 25.5625 19.117188 C 24.78125 19.382812 24.273438 19.675781 23.769531 20.144531 C 22.96875 20.886719 22.625 21.636719 22.625 22.625 C 22.625 23.574219 22.960938 24.34375 23.695312 25.039062 C 24.636719 25.9375 25.820312 26.375 27.3125 26.375 C 28.148438 26.375 28.710938 26.273438 29.417969 26 C 30.601562 25.550781 31.570312 24.582031 31.875 23.5625 C 32 23.167969 32 22.988281 31.988281 18.238281 L 31.96875 13.320312 Z M 31.0625 13.710938 "/>
<path style=" stroke:none;fill-rule:nonzero;fill:rgb(0%,0%,0%);fill-opacity:1;" d="M 17.90625 19.460938 L 17.03125 19.855469 L 17.011719 22.519531 C 17.007812 23.988281 16.988281 25.1875 16.976562 25.1875 C 16.957031 25.1875 16.742188 25.085938 16.492188 24.96875 C 16.25 24.851562 15.78125 24.695312 15.460938 24.617188 C 14.957031 24.507812 14.742188 24.488281 13.949219 24.511719 C 13.117188 24.539062 12.976562 24.5625 12.4375 24.742188 C 11.65625 25.007812 11.148438 25.300781 10.644531 25.769531 C 9.84375 26.511719 9.5 27.261719 9.5 28.25 C 9.5 29.199219 9.835938 29.96875 10.570312 30.664062 C 11.511719 31.5625 12.695312 32 14.1875 32 C 15.023438 32 15.585938 31.898438 16.292969 31.625 C 17.46875 31.175781 18.4375 30.210938 18.75 29.199219 C 18.867188 28.8125 18.875 28.613281 18.875 23.929688 C 18.875 21.257812 18.855469 19.0625 18.832031 19.070312 C 18.800781 19.070312 18.386719 19.25 17.90625 19.460938 Z M 17.90625 19.460938 "/>
</g>
</svg>
