<?xml version="1.0" encoding="UTF-8"?>
<svg xmlns="http://www.w3.org/2000/svg" xmlns:xlink="http://www.w3.org/1999/xlink" width="32px" height="32px" viewBox="0 0 32 32" version="1.1">
<g id="surface1">
<path style=" stroke:none;fill-rule:nonzero;fill:rgb(0%,0%,0%);fill-opacity:1;" d="M 11.15625 0.09375 C 10.101562 0.386719 9.113281 1.25 8.738281 2.21875 L 8.636719 2.46875 L 6.648438 2.5 C 4.695312 2.539062 4.644531 2.539062 4.15625 2.707031 C 3.335938 2.980469 2.789062 3.324219 2.148438 3.960938 C 1.519531 4.59375 1.175781 5.144531 0.886719 5.96875 L 0.71875 6.46875 L 0.71875 28.03125 L 0.886719 28.53125 C 1.175781 29.355469 1.519531 29.90625 2.148438 30.539062 C 2.78125 31.167969 3.332031 31.511719 4.15625 31.792969 L 4.65625 31.96875 L 8.082031 31.988281 C 11.492188 32.007812 11.511719 32.007812 11.792969 31.867188 C 11.960938 31.789062 12.136719 31.636719 12.238281 31.480469 C 12.382812 31.261719 12.40625 31.164062 12.40625 30.75 C 12.40625 30.335938 12.382812 30.238281 12.238281 30.019531 C 12.136719 29.867188 11.960938 29.710938 11.800781 29.632812 C 11.53125 29.507812 11.449219 29.5 8.679688 29.5 C 7.117188 29.5 5.648438 29.46875 5.40625 29.4375 C 4.269531 29.273438 3.414062 28.417969 3.25 27.28125 C 3.167969 26.6875 3.167969 7.8125 3.25 7.21875 C 3.425781 6 4.261719 5.21875 5.574219 5.039062 L 5.804688 5.007812 L 5.824219 7.085938 L 5.84375 9.167969 L 6.011719 9.417969 C 6.113281 9.570312 6.289062 9.726562 6.449219 9.804688 C 6.726562 9.9375 6.738281 9.9375 12.96875 9.9375 C 19.199219 9.9375 19.210938 9.9375 19.488281 9.804688 C 19.648438 9.726562 19.824219 9.570312 19.925781 9.417969 L 20.09375 9.167969 L 20.132812 5.042969 L 20.480469 5.082031 C 21.199219 5.15625 21.988281 5.738281 22.332031 6.4375 C 22.582031 6.957031 22.625 7.445312 22.625 10.042969 L 22.625 12.4375 L 20.304688 12.4375 C 17.726562 12.4375 17.585938 12.457031 16.789062 12.855469 C 16.1875 13.15625 15.53125 13.8125 15.230469 14.414062 C 14.792969 15.289062 14.8125 14.886719 14.8125 22.21875 C 14.8125 28.019531 14.824219 28.875 14.914062 29.207031 C 15.25 30.507812 16.304688 31.5625 17.605469 31.898438 C 18.164062 32.042969 27.882812 32.050781 28.492188 31.90625 C 29.761719 31.605469 30.882812 30.492188 31.210938 29.210938 C 31.363281 28.625 31.34375 27.957031 31.167969 27.617188 C 30.851562 27.011719 30.019531 26.792969 29.414062 27.148438 C 29.050781 27.363281 28.886719 27.636719 28.789062 28.210938 C 28.6875 28.792969 28.480469 29.125 28.113281 29.300781 C 27.851562 29.429688 27.769531 29.429688 23.050781 29.445312 L 18.257812 29.449219 L 17.976562 29.289062 C 17.792969 29.179688 17.625 29.011719 17.519531 28.824219 L 17.34375 28.53125 L 17.34375 15.90625 L 17.519531 15.613281 C 17.632812 15.417969 17.792969 15.257812 17.988281 15.144531 L 18.28125 14.96875 L 27.84375 14.96875 L 28.136719 15.144531 C 28.332031 15.257812 28.492188 15.417969 28.605469 15.613281 L 28.78125 15.90625 L 28.8125 19.164062 L 28.84375 22.417969 L 29.011719 22.667969 C 29.257812 23.039062 29.644531 23.207031 30.148438 23.175781 C 30.648438 23.144531 30.992188 22.9375 31.179688 22.550781 C 31.3125 22.28125 31.3125 22.207031 31.3125 18.945312 C 31.3125 15.242188 31.3125 15.242188 30.894531 14.414062 C 30.59375 13.8125 29.9375 13.15625 29.335938 12.855469 C 28.585938 12.480469 28.324219 12.4375 26.636719 12.4375 L 25.132812 12.4375 L 25.113281 9.449219 L 25.09375 6.46875 L 24.917969 5.96875 C 24.636719 5.144531 24.292969 4.59375 23.664062 3.960938 C 23.023438 3.324219 22.476562 2.980469 21.65625 2.707031 C 21.167969 2.539062 21.117188 2.539062 19.164062 2.5 L 17.175781 2.46875 L 17.074219 2.21875 C 16.695312 1.238281 15.699219 0.375 14.625 0.09375 C 14.15625 -0.03125 11.613281 -0.0234375 11.15625 0.09375 Z M 13.867188 2.554688 C 14.394531 2.664062 14.636719 2.945312 14.851562 3.726562 C 15.042969 4.414062 15.226562 4.695312 15.574219 4.867188 C 15.820312 4.980469 15.960938 5 16.738281 5 L 17.625 5 L 17.625 7.4375 L 8.3125 7.4375 L 8.3125 5 L 9.136719 5 C 9.851562 5 10 4.980469 10.238281 4.867188 C 10.585938 4.695312 10.769531 4.414062 10.960938 3.726562 C 11.175781 2.957031 11.425781 2.65625 11.917969 2.5625 C 12.25 2.492188 13.539062 2.492188 13.867188 2.554688 Z M 13.867188 2.554688 "/>
<path style=" stroke:none;fill-rule:nonzero;fill:rgb(0%,0%,0%);fill-opacity:1;" d="M 20.449219 17.570312 C 20.289062 17.648438 20.105469 17.8125 20.011719 17.957031 C 19.867188 18.175781 19.84375 18.273438 19.84375 18.6875 C 19.84375 19.101562 19.867188 19.199219 20.011719 19.417969 C 20.113281 19.570312 20.289062 19.726562 20.449219 19.804688 C 20.71875 19.929688 20.8125 19.9375 23.0625 19.9375 C 25.3125 19.9375 25.40625 19.929688 25.675781 19.804688 C 25.835938 19.726562 26.011719 19.570312 26.113281 19.417969 C 26.257812 19.199219 26.28125 19.101562 26.28125 18.6875 C 26.28125 18.273438 26.257812 18.175781 26.113281 17.957031 C 26.011719 17.804688 25.835938 17.648438 25.675781 17.570312 C 25.40625 17.445312 25.3125 17.4375 23.054688 17.4375 C 20.792969 17.4375 20.710938 17.445312 20.449219 17.570312 Z M 20.449219 17.570312 "/>
<path style=" stroke:none;fill-rule:nonzero;fill:rgb(0%,0%,0%);fill-opacity:1;" d="M 20.449219 21.945312 C 20.289062 22.023438 20.105469 22.1875 20.011719 22.332031 C 19.867188 22.550781 19.84375 22.648438 19.84375 23.0625 C 19.84375 23.476562 19.867188 23.574219 20.011719 23.792969 C 20.113281 23.945312 20.289062 24.101562 20.449219 24.179688 C 20.71875 24.304688 20.8125 24.3125 23.0625 24.3125 C 25.3125 24.3125 25.40625 24.304688 25.675781 24.179688 C 25.835938 24.101562 26.011719 23.945312 26.113281 23.792969 C 26.257812 23.574219 26.28125 23.476562 26.28125 23.0625 C 26.28125 22.648438 26.257812 22.550781 26.113281 22.332031 C 26.011719 22.179688 25.835938 22.023438 25.675781 21.945312 C 25.40625 21.820312 25.3125 21.8125 23.054688 21.8125 C 20.792969 21.8125 20.710938 21.820312 20.449219 21.945312 Z M 20.449219 21.945312 "/>
</g>
</svg>
