<?xml version="1.0" encoding="UTF-8"?>
<svg xmlns="http://www.w3.org/2000/svg" xmlns:xlink="http://www.w3.org/1999/xlink" width="32px" height="32px" viewBox="0 0 32 32" version="1.1">
<defs>
<filter id="alpha" filterUnits="objectBoundingBox" x="0%" y="0%" width="100%" height="100%">
  <feColorMatrix type="matrix" in="SourceGraphic" values="0 0 0 0 1 0 0 0 0 1 0 0 0 0 1 0 0 0 1 0"/>
</filter>
<mask id="mask0">
  <g filter="url(#alpha)">
<rect x="0" y="0" width="32" height="32" style="fill:rgb(0%,0%,0%);fill-opacity:0.956863;stroke:none;"/>
  </g>
</mask>
<clipPath id="clip1">
  <rect x="0" y="0" width="32" height="32"/>
</clipPath>
<g id="surface5" clip-path="url(#clip1)">
<path style=" stroke:none;fill-rule:evenodd;fill:rgb(0%,0%,0%);fill-opacity:1;" d="M 14.53125 -0.03125 C 15.488281 -0.03125 16.449219 -0.03125 17.40625 -0.03125 C 23.007812 0.648438 27.226562 3.421875 30.0625 8.28125 C 31.105469 10.25 31.742188 12.332031 31.96875 14.53125 C 31.96875 15.488281 31.96875 16.449219 31.96875 17.40625 C 31.289062 23.007812 28.515625 27.226562 23.65625 30.0625 C 21.6875 31.105469 19.605469 31.742188 17.40625 31.96875 C 16.449219 31.96875 15.488281 31.96875 14.53125 31.96875 C 8.929688 31.289062 4.710938 28.515625 1.875 23.65625 C 0.832031 21.6875 0.195312 19.605469 -0.03125 17.40625 C -0.03125 16.449219 -0.03125 15.488281 -0.03125 14.53125 C 0.648438 8.929688 3.421875 4.710938 8.28125 1.875 C 10.25 0.832031 12.332031 0.195312 14.53125 -0.03125 Z M 15.15625 1.59375 C 20.761719 1.503906 25.105469 3.777344 28.1875 8.40625 C 30.535156 12.398438 30.953125 16.585938 29.4375 20.96875 C 27.324219 26.125 23.523438 29.199219 18.03125 30.1875 C 12.316406 30.792969 7.722656 28.824219 4.25 24.28125 C 1.46875 20.140625 0.886719 15.703125 2.5 10.96875 C 4.335938 6.402344 7.617188 3.433594 12.34375 2.0625 C 13.277344 1.835938 14.214844 1.679688 15.15625 1.59375 Z M 12.78125 11.15625 C 15.214844 12.726562 17.632812 14.332031 20.03125 15.96875 C 17.644531 17.589844 15.25 19.191406 12.84375 20.78125 C 12.78125 17.574219 12.761719 14.363281 12.78125 11.15625 Z M 12.78125 11.15625 "/>
</g>
<mask id="mask1">
  <g filter="url(#alpha)">
<rect x="0" y="0" width="32" height="32" style="fill:rgb(0%,0%,0%);fill-opacity:0.964706;stroke:none;"/>
  </g>
</mask>
<clipPath id="clip2">
  <rect x="0" y="0" width="32" height="32"/>
</clipPath>
<g id="surface8" clip-path="url(#clip2)">
<path style=" stroke:none;fill-rule:evenodd;fill:rgb(0%,0%,0%);fill-opacity:1;" d="M 11.96875 9.03125 C 12.351562 8.984375 12.703125 9.054688 13.03125 9.25 C 15.90625 11.167969 18.78125 13.082031 21.65625 15 C 22.324219 15.644531 22.324219 16.292969 21.65625 16.9375 C 18.671875 18.941406 15.671875 20.921875 12.65625 22.875 C 11.972656 23.027344 11.480469 22.789062 11.1875 22.15625 C 11.144531 18.03125 11.144531 13.90625 11.1875 9.78125 C 11.359375 9.429688 11.621094 9.179688 11.96875 9.03125 Z M 12.78125 11.15625 C 12.761719 14.363281 12.78125 17.574219 12.84375 20.78125 C 15.25 19.191406 17.644531 17.589844 20.03125 15.96875 C 17.632812 14.332031 15.214844 12.726562 12.78125 11.15625 Z M 12.78125 11.15625 "/>
</g>
</defs>
<g id="surface1">
<use xlink:href="#surface5" mask="url(#mask0)"/>
<use xlink:href="#surface8" mask="url(#mask1)"/>
</g>
</svg>
